<svg xmlns="http://www.w3.org/2000/svg" viewBox="0 0 1000 1000">
    <path fill="#2E77BC" d="M1000 652.9V115.4c0-63.8-51.6-115.4-115.4-115.4H115.4C51.6 0 0 51.6 0 115.4v537.5c0 63.8 51.6 115.4 115.4 115.4h769.2c63.8 0 115.4-51.6 115.4-115.4zM615.4 500l76.9-76.9-76.9-76.9v153.8zm-230.8 0l76.9-76.9-76.9-76.9v153.8zM500 615.4l-76.9-76.9H269.2l153.8 153.8 76.9-76.9zm0-230.8l-76.9-76.9H269.2l153.8 153.8 76.9-76.9zm230.8 230.8l-76.9-76.9H500l153.8 153.8 76.9-76.9zm0-230.8l-76.9-76.9H500l153.8 153.8 76.9-76.9z"/>
</svg> 