<svg xmlns="http://www.w3.org/2000/svg" viewBox="0 0 1000 618">
    <path fill="#FF5F00" d="M380.2 268.6h239.6v380.9H380.2z"/>
    <path fill="#EB001B" d="M395.2 459c0-77.2 36.2-146.1 92.4-190.4-41.1-32.3-93-51.7-149.6-51.7-133.8 0-242.4 108.6-242.4 242.4S204.2 701.7 338 701.7c56.6 0 108.5-19.4 149.6-51.7-56.2-44.6-92.4-113.5-92.4-190.7"/>
    <path fill="#F79E1B" d="M1000 459c0 133.8-108.6 242.4-242.4 242.4-56.6 0-108.5-19.4-149.6-51.7 56.2-44.3 92.4-113.2 92.4-190.4s-36.2-146.1-92.4-190.4c41.1-32.3 93-51.7 149.6-51.7 133.8-.3 242.4 108.3 242.4 242.1"/>
</svg> 