<svg xmlns="http://www.w3.org/2000/svg" viewBox="0 0 1000 324">
    <path fill="#1434CB" d="M651.265 0h-88.311l55.275 321.965 88.311-.001L651.265 0z"/>
    <path fill="#1434CB" d="M405.328 0L319.15 220.123l-18.378-89.793c-.074-.354-7.313-35.344-43.446-63.927L333.42 321.965h89.379L535.798 0h-130.47zM272.938 0H120.684l-1.574 7.317c118.219 28.655 196.503 97.832 228.936 180.931L316.12 31.173C311.96 12.655 295.307 1.244 272.938 0z"/>
    <path fill="#1434CB" d="M851.794 0l-69.119 321.965h84.934L937.728 0h-85.934zM937.728 0L796.264 321.965h89.379L1000 0h-62.272z"/>
</svg> 